<?xml version="1.0" standalone="no"?>
<!DOCTYPE svg PUBLIC "-//W3C//DTD SVG 20010904//EN"
 "http://www.w3.org/TR/2001/REC-SVG-20010904/DTD/svg10.dtd">
<svg version="1.0" xmlns="http://www.w3.org/2000/svg"
 width="70.000000pt" height="70.000000pt" viewBox="0 0 70.000000 70.000000"
 preserveAspectRatio="xMidYMid meet">
<metadata>
Created by potrace 1.11, written by Peter Selinger 2001-2013
</metadata>
<g transform="translate(0.000000,70.000000) scale(0.100000,-0.100000)"
fill="#000000" stroke="none">
<path d="M100 499 c-57 -23 -100 -85 -100 -144 0 -123 128 -202 227 -138 19
13 22 12 31 -3 8 -14 10 -11 13 17 3 19 2 48 -1 64 l-6 30 -13 -38 c-30 -87
-144 -98 -186 -17 -30 59 -16 162 27 197 7 6 27 14 45 17 46 10 90 -16 114
-67 l19 -42 0 60 c0 44 -3 56 -11 48 -9 -9 -21 -7 -48 8 -39 21 -72 23 -111 8z"/>
<path d="M345 488 c11 -6 22 -15 25 -19 4 -6 5 -215 1 -240 -1 -3 -11 -11 -23
-17 -19 -9 -13 -11 37 -11 49 0 56 2 40 11 -11 6 -22 13 -25 15 -9 8 -7 203 1
197 5 -3 9 -9 9 -14 0 -5 13 -37 29 -72 16 -35 36 -80 45 -100 8 -21 19 -38
23 -38 4 0 28 49 53 108 l45 107 3 -84 c3 -97 1 -108 -30 -121 -17 -6 -4 -9
50 -9 47 -1 71 3 67 9 -4 6 -10 8 -15 5 -19 -12 -28 35 -25 140 3 135 1 124
28 135 18 7 15 9 -19 9 l-42 1 -52 -120 -53 -120 -51 117 -51 118 -45 3 c-39
2 -42 0 -25 -10z"/>
</g>
</svg>
